<svg xmlns="http://www.w3.org/2000/svg" viewBox="0 0 335.98 115.44"><defs><style>.cls-1{fill:#1d1d1b;}</style></defs><g id="Livello_2" data-name="Livello 2"><g id="Livello_1-2" data-name="Livello 1"><g id="logo_giallo_nero" data-name="logo giallo nero"><g id="giallo"><path class="cls-1" d="M331.13,70.92l0-10.81a2.42,2.42,0,0,1,2.42-2.39A2.4,2.4,0,0,1,336,60.14l-.06,52.91a2.42,2.42,0,0,1-2.42,2.39,2.57,2.57,0,0,1-2.57-2.42l0-10.88-.32.34a28.85,28.85,0,1,1,0-32Z"/><path class="cls-1" d="M229.39,115.41A28.51,28.51,0,1,0,201,86.74a28.5,28.5,0,0,0,28.36,28.67"/><path class="cls-1" d="M130.93,70.92l0-10.81a2.4,2.4,0,1,1,4.8,0l-.05,52.91a2.42,2.42,0,0,1-2.42,2.39,2.56,2.56,0,0,1-2.56-2.42l0-10.88-.32.34a28.86,28.86,0,1,1,0-32Z"/><path class="cls-1" d="M69.64,19.19a2.4,2.4,0,0,0,2.42-2.39l0-9.69a2.42,2.42,0,0,0-2.4-2.42,2.39,2.39,0,0,0-2.4,2.39v9.69a2.41,2.41,0,0,0,2.39,2.42"/><path class="cls-1" d="M69.61,115.44A2.39,2.39,0,0,0,72,113V60.13a2.4,2.4,0,1,0-4.8,0V113a2.41,2.41,0,0,0,2.4,2.42"/><path class="cls-1" d="M270.35,86.54a38.43,38.43,0,0,1,38.7-38.21A2.42,2.42,0,0,0,311.53,46a2.51,2.51,0,0,0-2.45-2.47,43.37,43.37,0,0,0-38.73,23.34V67l0-6.84a2.4,2.4,0,1,0-4.79,0V113a2.41,2.41,0,0,0,2.41,2.41,2.36,2.36,0,0,0,2.36-2.39Z"/><path class="cls-1" d="M192.34,70.92l0-68.54a2.4,2.4,0,1,1,4.8,0V113a2.43,2.43,0,0,1-2.43,2.41h-.24a2.44,2.44,0,0,1-2.39-2.42l.06-10.88-.31.35a28.9,28.9,0,1,1,0-32Z"/><path class="cls-1" d="M53.33,70.92l0-68.54a2.41,2.41,0,0,1,4.82,0V113a2.44,2.44,0,0,1-2.43,2.41H55.5A2.42,2.42,0,0,1,53.12,113l.05-10.88-.32.35a28.88,28.88,0,1,1,0-32Z"/></g><g id="fregio_nero" data-name="fregio nero"><path class="cls-1" d="M202.21,7.87,205,5.49a91.87,91.87,0,0,0,24.48,6,34.47,34.47,0,0,0,24.75-6.84l15.95,9.53a44.47,44.47,0,0,1-23.6,8.37c7.37,5,18.08,16.1,23.6,25H248.75A71.54,71.54,0,0,0,202.21,7.87Z"/></g></g></g></g></svg>